<svg width="32" height="28" viewBox="0 0 32 28" fill="none" xmlns="http://www.w3.org/2000/svg">
<g clip-path="url(#clip0_760_82)">
<path d="M29.8 4.6H2.2C1 4.6 0 3.6 0 2.4V2.3C0 1 1 0 2.2 0H29.7C31 0 32 1 32 2.2V2.3C32 3.6 31 4.6 29.8 4.6Z" fill="white"/>
<path d="M29.8 16.2H2.2C1 16.2 0 15.2 0 14V13.9C0 12.7 1 11.7 2.2 11.7H29.7C30.9 11.7 31.9 12.7 31.9 13.9V14C32 15.2 31 16.2 29.8 16.2Z" fill="white"/>
<path d="M29.8 27.7H2.2C1 27.7 0 26.7 0 25.5V25.4C0 24.1999 1 23.2 2.2 23.2H29.7C30.9 23.2 31.9 24.1999 31.9 25.4V25.5C32 26.7 31 27.7 29.8 27.7Z" fill="white"/>
</g>
<defs>
<clipPath id="clip0_760_82">
<rect width="32" height="27.7" fill="white"/>
</clipPath>
</defs>
</svg>
