<svg width="30" height="30" viewBox="0 0 30 30" fill="none" xmlns="http://www.w3.org/2000/svg">
<path d="M17.9999 14.6999L28.7999 3.8999C29.6999 2.9999 29.6999 1.5999 28.7999 0.799902L28.6999 0.699902C27.7999 -0.200098 26.3999 -0.200098 25.5999 0.699902L14.6999 11.4999L3.9999 0.699902C3.0999 -0.200098 1.5999 -0.200098 0.699902 0.699902C-0.200098 1.5999 -0.200098 3.0999 0.699902 3.9999L11.4999 14.7999L0.699902 25.5999C-0.200098 26.4999 -0.200098 27.8999 0.699902 28.6999L0.799902 28.7999C1.6999 29.6999 3.0999 29.6999 3.8999 28.7999L14.6999 17.9999L25.4999 28.7999C26.3999 29.6999 27.8999 29.6999 28.7999 28.7999C29.6999 27.8999 29.6999 26.3999 28.7999 25.4999L17.9999 14.6999Z" fill="white"/>
</svg>
