<svg width="729" height="729" viewBox="0 0 729 729" fill="none" xmlns="http://www.w3.org/2000/svg">
<path d="M591 728.7H337.7C296.8 728.7 274.3 728.7 253.4 718.1C234.9 708.7 220.1 693.9 210.7 675.4C200 654.4 200 631.9 200 591V528.7H137.7C96.8 528.7 74.3 528.7 53.4 518.1C34.9 508.7 20.1 493.9 10.7 475.4C0 454.4 0 431.9 0 391V137.7C0 96.8 0 74.3 10.6 53.4C20 34.9 34.8 20.1 53.3 10.7C74.2 0 96.8 0 137.7 0H391C431.9 0 454.4 0 475.3 10.6C493.8 20 508.6 34.8 518 53.3C528.6 74.2 528.6 96.7 528.6 137.6V200H591C631.9 200 654.4 200 675.3 210.6C693.8 220 708.6 234.8 718 253.3C728.6 274.2 728.6 296.7 728.6 337.6V591C728.6 631.9 728.6 654.4 718 675.3C708.6 693.8 693.8 708.6 675.3 718C654.4 728.7 631.9 728.7 591 728.7ZM262 497.7V591C262 620.2 262 639.6 265.9 647.2C269.3 654 274.7 659.3 281.5 662.8C289.1 666.7 308.5 666.7 337.7 666.7H591C620.2 666.7 639.6 666.7 647.2 662.8C654 659.4 659.3 654 662.8 647.2C666.7 639.6 666.7 620.2 666.7 591V337.7C666.7 308.5 666.7 289.1 662.8 281.5C659.4 274.7 654 269.4 647.2 265.9C639.6 262 620.3 262 591 262H337.7C308.5 262 289.1 262 281.5 265.9C274.7 269.3 269.4 274.7 265.9 281.5C262 289.1 262 308.4 262 337.7V497.7ZM137.7 62C108.5 62 89.1 62 81.5 65.9C74.7 69.3 69.4 74.7 65.9 81.5C62 89.1 62 108.4 62 137.7V391C62 420.2 62 439.6 65.9 447.2C69.3 454 74.7 459.3 81.5 462.8C89.1 466.7 108.5 466.7 137.7 466.7H200V337.7C200 296.8 200 274.3 210.6 253.4C220 234.9 234.8 220.1 253.3 210.7C274.2 200.1 296.7 200.1 337.6 200.1H466.6V137.8C466.6 108.6 466.6 89.2 462.7 81.6C459.3 74.8 453.9 69.5 447.1 66C439.6 62 420.2 62 391 62H137.7Z" fill="white"/>
</svg>
