<svg width="80" height="80" viewBox="0 0 80 80" fill="none" xmlns="http://www.w3.org/2000/svg">
<path fill-rule="evenodd" clip-rule="evenodd" d="M46.9666 28.4976C49.4429 27.2773 52.5938 25.4811 55.7486 23.02C56.4137 24.3851 56.4866 25.5763 56.1439 26.5381C55.901 27.216 55.4434 27.8056 54.8416 28.2747C54.19 28.7816 53.3761 29.1507 52.4765 29.3501C50.7694 29.7301 48.7764 29.5083 46.9666 28.4976ZM47.3959 41.0005L50.6739 42.8717C43.9808 46.5789 42.1612 53.4627 39.9998 60.1675C37.8387 53.4627 36.0188 46.5789 29.326 42.8717L32.604 41.0005C32.9211 40.8821 33.1921 40.6675 33.3783 40.3875C33.5644 40.1075 33.6561 39.7765 33.6402 39.4419C33.3399 33.1627 35.0555 30.3859 37.3697 28.6424C38.1997 28.0179 39.1058 27.7043 39.9998 27.7043C40.8938 27.7043 41.7999 28.0179 42.6302 28.6424C44.9444 30.3859 46.66 33.1627 46.3597 39.4419C46.3438 39.7765 46.4355 40.1075 46.6216 40.3875C46.8077 40.6675 47.0788 40.8821 47.3959 41.0005ZM39.9998 0C43.7889 0.100533 47.5875 0.827467 50.8841 2.2416C53.167 3.22213 55.2971 4.51733 57.2259 6.06613C58.097 6.76533 58.8142 7.4408 59.6043 8.2184C61.7353 8.2912 64.8495 5.95173 66.2953 3.76267C63.8071 11.824 52.4527 21.3437 44.592 24.9864C44.5887 24.9851 44.5866 24.9832 44.5841 24.9816C43.1734 23.9171 41.5867 23.3848 39.9998 23.3848C38.4129 23.3848 36.8265 23.9171 35.4157 24.9816C35.4133 24.9829 35.4112 24.9853 35.4079 24.9864C27.5469 21.3437 16.1928 11.824 13.7046 3.76267C15.1501 5.95173 18.2644 8.2912 20.3953 8.2184C21.1857 7.44107 21.9029 6.76533 22.7737 6.06613C24.7025 4.51733 26.8326 3.22213 29.1155 2.2416C32.4124 0.827467 36.211 0.100533 39.9998 0ZM33.033 28.4976C30.557 27.2773 27.4058 25.4811 24.2513 23.02C23.5862 24.3851 23.5133 25.5763 23.8557 26.5381C24.0989 27.216 24.5565 27.8056 25.158 28.2747C25.8099 28.7816 26.6238 29.1507 27.5234 29.3501C29.2304 29.7301 31.2232 29.5083 33.033 28.4976Z" fill="white"/>
<path fill-rule="evenodd" clip-rule="evenodd" d="M59.2038 20.0043C60.9405 18.2723 62.4708 16.3552 63.7012 14.6445L64.3262 15.8069C66.3381 19.7848 67.3835 23.7467 67.3835 28.2053L67.3792 35.2805L67.417 38.9483C67.5627 47.9525 69.5341 57.0627 74 65.3997L64.6562 57.9539L58.0448 68.5563L51.0991 62.0947L40 79.8944L28.9009 62.0949L21.9554 68.5565L15.3441 57.9541L6 65.4C10.4659 57.0629 12.4373 47.9528 12.5833 38.9485L12.6211 35.2808L12.6168 28.2056C12.6168 23.7467 13.6619 19.7848 15.6744 15.8072L16.299 14.6448C17.5295 16.3555 19.0595 18.2723 20.7965 20.0045L20.2541 21.1179C19.2004 23.2803 18.8515 25.6981 19.6723 27.9976C20.2015 29.4787 21.1672 30.7488 22.4123 31.7184C23.6212 32.66 25.0519 33.2947 26.5498 33.628C27.5255 33.8451 28.5196 33.9344 29.5072 33.904C29.2768 35.1949 29.1761 36.5339 29.1697 37.8981L20.3556 42.9291L27.1572 46.6968C27.7008 46.998 28.2183 47.3431 28.7044 47.7285C34.312 52.704 37.6834 67.4232 40.0003 74.6128C42.3174 67.4232 45.6885 52.704 51.2964 47.7285C51.7824 47.343 52.3 46.9979 52.8436 46.6968L59.6453 42.9291L50.8309 37.8981C50.8244 36.5339 50.7238 35.1949 50.4933 33.904C51.4809 33.9344 52.475 33.8451 53.4508 33.628C54.9487 33.2947 56.3796 32.66 57.5883 31.7184C58.833 30.7488 59.7991 29.4787 60.328 27.9976C61.1491 25.6981 60.7999 23.2805 59.7464 21.1179L59.2041 20.0045L59.2038 20.0043Z" fill="white"/>
</svg>
