<svg width="502" height="220" viewBox="0 0 502 220" fill="none" xmlns="http://www.w3.org/2000/svg">
<path d="M281.3 91.9C282.1 91.9 282.8 92.2 283.3 92.8C283.8 93.4 284 94.3 284 95.4V96.4C283.7 98.1 283.5 100.3 283.5 103.1C283.5 110.2 285.6 115.5 289.7 119C293.8 122.5 299.2 124.2 305.8 124.2C313.6 124.2 321.3 121.7 329 116.8C336.7 111.9 343.5 105 349.5 96.4H351C361.8 96.4 370.5 93.2 377.3 86.7C378.8 85.3 380.2 83.8 381.6 82.2C382.6 93.3 386.1 102.6 392.2 110.4C399.5 119.6 410.2 124.2 424.2 124.2C438.6 124.2 452.3 119 465.3 108.6C478.3 98.2 490.3 82.8 501.2 62.4C502.2 60.7 501.8 58.9 500.1 56.9C498.4 54.9 496.3 53.9 494 53.9C492.3 53.9 491 54.6 490 56.1C484.7 64.4 477.6 70.8 468.6 75.2C459.7 79.7 450.7 81.9 441.8 81.9C434.4 81.9 428.2 80.7 423.3 78.4C418.4 76.1 416 72.9 416 68.7C416 67.5 416.2 66.7 416.7 66.1C417.2 65.5 417.9 65.2 418.7 65.2C419 65.2 419.5 65.4 420.2 65.7C424.8 68.3 431.3 69.7 439.6 69.7C447.4 69.7 454.3 67.8 460.3 64C466.3 60.2 471.1 55.3 474.5 49.3C477.9 43.3 479.6 37.3 479.6 31.2C479.6 22.3 476.8 14.8 471.2 8.9C465.7 3 457.4 0 446.5 0C433.6 0 422.2 3.8 412.2 11.3C402.3 18.8 394.7 28.5 389.4 40.2C387.1 45.2 385.4 50.3 384.1 55.3C383.9 55.5 383.6 55.8 383.5 56.1C377.9 64.2 371.2 68.3 363.6 68.3C366.7 58 368.3 47.9 368.3 37.8C368.3 26.2 365.4 17 359.5 10.2C353.6 3.4 345.6 0 335.7 0C331.2 0 327 0.7 323.2 2.1C319.3 3.5 315.4 6.1 311.4 9.9C309.9 11.4 308.3 12.1 306.7 12.1C305.5 12.1 304.7 11.8 304.1 11.1C303.5 10.4 303.3 9.5 303.5 8.4C304.5 2.8 301.2 0 293.6 0C289.5 0 286.2 1.3 283.7 3.8C281.2 6.4 278.7 10.8 276.3 17C273.8 23.2 269.8 34.6 264.1 51.1L262.4 56.1C257.1 64.4 250 70.7 241 75.2C232.1 79.7 223.1 81.9 214.2 81.9C206.8 81.9 200.6 80.7 195.7 78.4C190.8 76.1 188.4 72.9 188.4 68.7C188.4 67.5 188.6 66.7 189.1 66.1C189.6 65.5 190.3 65.2 191.1 65.2C191.4 65.2 191.9 65.4 192.6 65.7C197.2 68.3 203.7 69.7 212 69.7C219.8 69.7 226.7 67.8 232.7 64C238.7 60.2 243.5 55.3 246.9 49.3C250.3 43.3 252 37.3 252 31.2C252 22.3 249.2 14.8 243.6 8.9C237.7 3 229.4 0 218.5 0C205.6 0 194.2 3.8 184.2 11.3C174.3 18.8 166.7 28.5 161.4 40.2C159.1 45.2 157.4 50.3 156.1 55.3C155.9 55.5 155.6 55.8 155.5 56.1C149.9 64.2 143.2 68.3 135.6 68.3C138.7 58 140.3 47.9 140.3 37.8C140.3 26.2 137.4 17 131.5 10.2C125.6 3.4 117.7 0 107.8 0C103.3 0 99.1 0.7 95.3 2.1C91.4 3.5 87.5 6.1 83.5 9.9C82 11.4 80.4 12.1 78.8 12.1C77.6 12.1 76.8 11.8 76.2 11.1C75.6 10.4 75.4 9.5 75.6 8.4C76.6 2.8 73.3 0 65.7 0C61.6 0 58.3 1.3 55.8 3.8C53.3 6.4 50.8 10.8 48.4 17C45.9 23.2 41.9 34.6 36.2 51.1L34.5 56.1L24.1 84.2L16.9 102.3C10.8 117.7 6.4 129.2 3.9 136.9C1.3 144.6 0 151.2 0 156.7C0 168.1 5.8 173.8 17.4 173.8C22.4 173.8 26.7 170.7 30.3 164.5C33.9 158.3 36.9 150.8 39.2 141.9C41.5 133 44.2 120.9 47.4 105.5L49.1 96.3C49.9 93.3 51.3 91.8 53.3 91.8C54.1 91.8 54.8 92.1 55.3 92.7C55.8 93.3 56 94.2 56 95.3V96.3C55.7 98 55.5 100.2 55.5 103C55.5 110.1 57.6 115.4 61.7 118.9C65.8 122.4 71.2 124.1 77.8 124.1C85.6 124.1 93.3 121.6 101 116.7C108.7 111.8 115.5 104.9 121.5 96.3H123C133.8 96.3 142.5 93.1 149.3 86.6C150.8 85.2 152.2 83.7 153.6 82.1C154.6 93.2 158.1 102.5 164.2 110.3C171.5 119.5 182.2 124.1 196.2 124.1C210.6 124.1 224.3 118.9 237.3 108.5C239.8 106.5 242.4 104.2 244.8 101.8L244.6 102.3C238.5 117.7 234.1 129.2 231.6 136.9C229 144.6 227.8 151.2 227.8 156.6C227.8 168 233.6 173.7 245.2 173.7C250.2 173.7 254.5 170.6 258.1 164.4C261.7 158.2 264.7 150.7 267 141.8C269.3 132.9 272 120.8 275.2 105.4L276.9 96.2C277.9 93.4 279.3 91.9 281.3 91.9ZM426 31.3C428.9 28.5 432.7 27.1 437.3 27.1C440.9 27.1 443.8 28.1 445.7 30C447.7 31.9 448.7 34.3 448.7 37.3C448.7 40.8 447.2 44 444.4 46.9C441.5 49.8 437.8 51.2 433.4 51.2C429.6 51.2 426.7 50.2 424.7 48.3C422.7 46.4 421.7 44 421.7 41C421.6 37.3 423.1 34.1 426 31.3ZM303.6 43.5C307.5 38.7 312.3 36.3 318.1 36.3C322.7 36.3 326.2 37.5 328.4 40C330.6 42.5 331.8 45.6 331.8 49.4C331.8 52.9 330.9 56.4 329.1 60.1C327.3 63.7 324.8 66.8 321.5 69.2C318.3 71.6 314.7 72.8 310.7 72.8C306.2 72.8 303 71.6 300.9 69.1C298.8 66.6 297.8 63.4 297.8 59.4C297.7 53.6 299.7 48.3 303.6 43.5ZM198 31.3C200.9 28.5 204.7 27.1 209.3 27.1C212.9 27.1 215.8 28.1 217.7 30C219.7 31.9 220.7 34.3 220.7 37.3C220.7 40.8 219.2 44 216.4 46.9C213.5 49.8 209.8 51.2 205.4 51.2C201.6 51.2 198.7 50.2 196.7 48.3C194.7 46.4 193.7 44 193.7 41C193.7 37.3 195.1 34.1 198 31.3ZM101.1 60.1C99.3 63.7 96.8 66.8 93.5 69.2C90.3 71.6 86.7 72.8 82.7 72.8C78.2 72.8 75 71.6 72.9 69.1C70.8 66.6 69.8 63.4 69.8 59.4C69.8 53.6 71.7 48.3 75.6 43.5C79.5 38.7 84.3 36.3 90.1 36.3C94.7 36.3 98.2 37.5 100.4 40C102.6 42.5 103.8 45.6 103.8 49.4C103.8 52.9 102.9 56.5 101.1 60.1ZM269.8 185.5C271.5 187.2 272.3 189.2 272.3 191.5C272.3 193.8 271.5 195.8 269.8 197.5C268.1 199.2 266.1 200 263.8 200C261.5 200 259.5 199.2 257.8 197.5C256.1 195.8 255.3 193.8 255.3 191.5C255.3 189.1 256.1 187.1 257.8 185.5C259.5 183.8 261.5 183 263.8 183C266.1 183 268.1 183.8 269.8 185.5ZM498.8 170.3C498.1 170.3 497.6 170.6 497.2 171.2C496 172.9 494.9 174.2 493.8 175.1C492.7 176 491.4 176.5 490 176.6C489.3 173.7 487.8 170 485.4 165.4C484 162.6 483.3 160.8 483.3 160.2C483.3 159.3 483.6 158.5 484.3 157.9C485 157.3 486 156.6 487.2 156C488.3 155.4 489.1 154.8 489.7 154.4C490.3 153.9 490.6 153.4 490.6 152.7C490.7 150.9 489.9 149.3 488.3 147.9C486.7 146.5 484.4 145.8 481.4 145.8C479.3 145.8 477.2 146.6 475.3 148.2C473.3 149.8 471.4 151.7 469.7 154C468 156.3 465.9 159.4 463.3 163.1C460.9 166.8 459.2 169.3 458.2 170.6L457.8 171.2C455.5 174.5 452.8 176.2 449.7 176.2H449C450 172.8 450.5 169.3 450.5 165.7C450.5 159.7 449.1 155.3 446.4 152.4C443.7 149.6 440.1 148.2 435.6 148.2C430.5 148.2 425.7 149.9 421.5 153.3C417.2 156.7 413.9 161.1 411.4 166.3C410.7 167.9 410 169.4 409.5 171L409.4 171.1C408.4 172.7 407.1 174 405.4 174.9C403.8 175.8 402 176.2 400 176.2C397.6 176.2 395.7 175.5 394.4 174.2C393 172.9 392.3 171.1 392.3 168.8C392.3 167.8 392.5 166.4 393 164.6C393.7 162.2 394.3 160.5 394.9 159.6C395.5 158.7 396.5 158.2 397.8 157.9C399.1 157.7 401.5 157.5 405 157.5C406.2 157.5 407.1 156.8 407.9 155.4C408.7 154 409.1 152.5 409.1 151C409.1 150.1 409 149.4 408.7 148.9C408.4 148.4 408.1 148.1 407.6 148.1H402.3C401.4 148.1 401 147.7 401 146.9C401 146 401.4 144.8 402.2 143.1C403.4 140.8 403.9 138.8 403.9 137.1C403.9 134.7 402.7 133.5 400.2 133.5C398.8 133.5 397.5 134 396.4 134.9C395.3 135.8 394.1 137.6 393 140.3C392.2 142.5 390.9 144.3 389.1 145.8C387.3 147.3 385.1 148 382.4 148C381.9 148 381.6 148.2 381.3 148.7C381.1 149.2 380.9 149.8 380.9 150.5C380.9 151.9 381.3 153.1 382.2 154.2C383 155.3 384.3 155.8 386 155.8L384 161.4C382.6 165.1 381.5 168.1 380.7 170.6C380.6 170.7 380.5 170.8 380.5 170.9C378.2 174.2 375.5 175.9 372.4 175.9C373.7 171.7 374.3 167.5 374.3 163.4C374.3 158.7 373.1 154.9 370.7 152.1C368.3 149.3 365.1 147.9 361 147.9C359.2 147.9 357.5 148.2 355.9 148.8C354.3 149.4 352.7 150.4 351.1 152C350.5 152.6 349.8 152.9 349.2 152.9C348.7 152.9 348.4 152.8 348.1 152.5C347.9 152.2 347.8 151.9 347.8 151.4C348.2 149.1 346.9 147.9 343.7 147.9C342 147.9 340.7 148.4 339.6 149.5C338.6 150.6 337.6 152.3 336.6 154.9C335.6 157.4 333.9 162.1 331.6 168.9L330.9 170.9C328.7 174.4 326.1 176.1 322.9 176.1C320.1 176.1 318.7 174.7 318.7 171.8C318.7 169.8 319.4 167.4 320.7 164.6C321 163.7 321.5 162.6 322 161.5C322.5 160.4 322.9 159.6 323.1 159C323.9 157.4 324.5 156 324.9 154.9C325.3 153.8 325.5 152.7 325.5 151.6C325.5 149.1 324.3 147.8 321.9 147.8C320.7 147.8 319.8 148 319.1 148.4C318.4 148.8 317.5 149.3 316.7 150.1C316 150.6 315.4 151 314.9 151.3C314.4 151.6 313.8 151.7 313.1 151.7C312.5 151.7 311.7 151.3 310.9 150.6C310.1 149.8 309.1 149.1 308 148.6C306.8 148.1 305.1 147.8 302.8 147.8C297.3 147.8 292.6 149.7 288.6 153.4C284.6 157.2 281.6 161.8 279.6 167.3C277.6 172.8 276.6 178.1 276.6 183.2C276.6 187.9 277.5 191.6 279.3 194.4C281.1 197.2 283.7 198.6 287.1 198.6C290.5 198.6 293.7 197.2 296.7 194.5C299.7 191.8 302.3 188.2 304.5 183.8H304.9C304.7 185 304.6 186.2 304.6 187.4C304.6 190.8 305.4 193.5 306.9 195.6C308.5 197.7 310.7 198.7 313.6 198.7C316.5 198.7 319.1 197.8 321.4 195.9C320.1 199.2 319.1 201.9 318.5 204C317.5 207.2 316.9 209.8 316.9 212.1C316.9 216.8 319.3 219.1 324 219.1C326 219.1 327.8 217.8 329.3 215.3C330.8 212.8 332 209.7 333 206.1C333.9 202.5 335.1 197.5 336.4 191.2L337.1 187.4C337.4 186.2 338 185.6 338.8 185.6C339.1 185.6 339.4 185.7 339.6 186C339.8 186.2 339.9 186.6 339.9 187.1V187.5C339.8 188.2 339.7 189.1 339.7 190.2C339.7 193.1 340.5 195.3 342.2 196.7C343.9 198.1 346.1 198.8 348.8 198.8C352 198.8 355.2 197.8 358.3 195.8C361.4 193.8 364.2 191 366.7 187.5H367.3C371.4 187.5 374.7 186.4 377.4 184.1C377.4 184.7 377.3 185.4 377.3 186C377.3 189.9 378.2 193.1 380 195.4C381.8 197.7 384.6 198.9 388.3 198.9C392.3 198.9 395.9 197.6 399.1 195C402.3 192.4 404.9 189.6 406.9 186.4C407.2 185.9 407.5 185.4 407.8 185C408.3 188.7 409.7 191.8 412 194.3C414.9 197.4 418.7 198.9 423.4 198.9C427.1 198.9 430.7 197.9 434.2 195.9C437.7 193.9 440.7 191.1 443.3 187.6H444.5C448.6 187.6 452 186.4 454.7 184.1C455 188 456.4 191.4 458.9 194.1C461.7 197.2 466 198.8 471.7 198.8C477.4 198.8 482.3 197.3 486.4 194.2C490.5 191.2 493.6 188 495.7 184.7C497.8 181.4 499.8 177.7 501.8 173.6C502.1 172.9 502 172.2 501.2 171.4C500.4 170.7 499.6 170.3 498.8 170.3ZM305 172.8C304.3 174.3 303.2 175.5 301.8 176.5C300.4 177.5 298.9 178 297.2 178C295.6 178 294.4 177.5 293.5 176.5C292.6 175.5 292.1 174.2 292.1 172.5C292.1 170.1 292.9 168 294.5 166C296.1 164 298.2 163.1 300.7 163.1C302.3 163.1 303.6 163.6 304.6 164.5C305.5 165.4 306 166.8 306 168.5C306.1 169.9 305.7 171.3 305 172.8ZM358.2 172.8C357.5 174.3 356.4 175.5 355.1 176.5C353.8 177.5 352.3 178 350.7 178C348.9 178 347.5 177.5 346.7 176.5C345.9 175.5 345.4 174.2 345.4 172.5C345.4 170.1 346.2 168 347.8 166C349.4 164 351.4 163.1 353.7 163.1C355.6 163.1 357 163.6 357.9 164.6C358.8 165.6 359.3 166.9 359.3 168.5C359.4 169.9 359 171.3 358.2 172.8ZM436.7 172.8C436 174.3 434.9 175.5 433.6 176.5C432.3 177.5 430.8 178 429.2 178C427.4 178 426 177.5 425.2 176.5C424.4 175.5 423.9 174.2 423.9 172.5C423.9 170.1 424.7 168 426.3 166C427.9 164 429.9 163.1 432.2 163.1C434.1 163.1 435.5 163.6 436.4 164.6C437.3 165.6 437.8 166.9 437.8 168.5C437.8 169.9 437.4 171.3 436.7 172.8ZM473.1 175.9C471.8 177.3 470.1 178 468 178C466.3 178 464.9 177.6 463.9 176.8C462.8 176 462.3 175 462.3 173.8C465.3 169.9 468 166.3 470.3 162.9C470.8 162.2 471.2 161.9 471.6 161.9C472.1 161.9 472.4 162.2 472.7 162.9C474.2 165.7 474.9 168.3 474.9 170.6C475 172.8 474.4 174.5 473.1 175.9Z" fill="white"/>
</svg>
