<svg width="510" height="254" viewBox="0 0 510 254" fill="none" xmlns="http://www.w3.org/2000/svg">
<g clip-path="url(#clip0_767_100)">
<path d="M298.3 223.2C299.8 224.7 300.5 226.5 300.5 228.6C300.5 230.7 299.8 232.5 298.3 234C296.8 235.5 295 236.3 292.9 236.3C290.8 236.3 289 235.5 287.5 234C286 232.5 285.2 230.7 285.2 228.6C285.2 226.5 286 224.7 287.5 223.2C289 221.7 290.8 221 292.9 221C295 221 296.8 221.7 298.3 223.2ZM505.4 210.7C506 211.4 506.2 212.1 505.9 212.7C504.1 216.4 502.3 219.7 500.4 222.7C498.5 225.6 495.7 228.5 492.1 231.2C488.4 233.9 484.1 235.3 479 235.3C473.9 235.3 470.1 233.9 467.6 231.1C465.4 228.6 464.2 225.6 463.9 222.1C461.5 224.2 458.4 225.2 454.7 225.2H453.6C451.3 228.4 448.6 230.8 445.5 232.7C442.4 234.5 439.1 235.4 435.8 235.4C431.6 235.4 428.2 234 425.6 231.3C423.6 229.1 422.3 226.4 421.9 223C421.6 223.4 421.4 223.9 421.1 224.3C419.3 227.1 417 229.7 414.1 232C411.2 234.3 408 235.5 404.5 235.5C401.2 235.5 398.7 234.5 397 232.4C395.4 230.3 394.5 227.5 394.5 224C394.5 223.4 394.5 222.9 394.6 222.3C392.2 224.3 389.2 225.4 385.5 225.4H385C382.8 228.6 380.3 231 377.5 232.9C374.7 234.7 371.8 235.6 369 235.6C366.6 235.6 364.6 235 363.1 233.7C361.6 232.4 360.8 230.5 360.8 227.9C360.8 226.9 360.9 226.1 361 225.4V225C361 224.6 360.9 224.3 360.7 224C360.5 223.8 360.3 223.7 360 223.7C359.3 223.7 358.8 224.2 358.5 225.3L357.9 228.7C356.7 234.3 355.7 238.8 354.9 242C354.1 245.2 353 248 351.6 250.3C350.3 252.6 348.7 253.7 346.9 253.7C342.7 253.7 340.5 251.6 340.5 247.4C340.5 245.4 341 243 341.9 240.2C342.5 238.4 343.4 236 344.5 233C342.5 234.7 340.2 235.5 337.6 235.5C335 235.5 333 234.6 331.6 232.7C330.2 230.9 329.5 228.4 329.5 225.4C329.5 224.4 329.6 223.3 329.8 222.2H329.4C327.5 226.1 325.1 229.3 322.4 231.8C319.7 234.3 316.8 235.5 313.8 235.5C310.8 235.5 308.4 234.3 306.8 231.8C305.2 229.3 304.4 226 304.4 221.8C304.4 217.3 305.3 212.5 307.1 207.6C308.9 202.7 311.6 198.5 315.1 195.1C318.6 191.7 322.9 190.1 327.8 190.1C329.9 190.1 331.4 190.3 332.4 190.8C333.4 191.3 334.3 191.8 335 192.6C335.8 193.3 336.5 193.6 337 193.6C337.6 193.6 338.1 193.5 338.6 193.2C339.1 193 339.6 192.6 340.2 192.1C341 191.4 341.7 190.9 342.4 190.6C343.1 190.3 343.9 190.1 344.9 190.1C347 190.1 348.1 191.2 348.1 193.5C348.1 194.5 347.9 195.4 347.6 196.4C347.2 197.4 346.7 198.6 346 200C345.8 200.5 345.5 201.2 345 202.2C344.5 203.2 344.1 204.1 343.8 205C342.6 207.5 342 209.6 342 211.5C342 214 343.2 215.3 345.7 215.3C348.5 215.3 350.9 213.8 352.9 210.7L353.5 208.9C355.6 202.8 357 198.7 358 196.4C358.9 194.1 359.8 192.5 360.7 191.6C361.6 190.7 362.8 190.2 364.3 190.2C367.1 190.2 368.3 191.2 367.9 193.3C367.8 193.7 367.9 194.1 368.1 194.3C368.3 194.5 368.6 194.7 369.1 194.7C369.7 194.7 370.3 194.4 370.8 193.9C372.3 192.5 373.7 191.6 375.1 191C376.5 190.5 378.1 190.2 379.7 190.2C383.3 190.2 386.2 191.4 388.4 193.9C390.6 196.4 391.6 199.8 391.6 204C391.6 207.7 391 211.4 389.9 215.2C392.7 215.2 395.1 213.7 397.2 210.7C397.3 210.6 397.3 210.5 397.4 210.5C398.2 208.3 399.2 205.6 400.4 202.3L402.2 197.3C400.7 197.3 399.5 196.8 398.8 195.8C398 194.8 397.7 193.7 397.7 192.5C397.7 191.8 397.8 191.3 398 190.9C398.2 190.5 398.5 190.3 399 190.3C401.4 190.3 403.4 189.6 405 188.3C406.6 187 407.7 185.3 408.5 183.4C409.5 181 410.5 179.4 411.5 178.5C412.5 177.7 413.6 177.3 414.9 177.3C417.1 177.3 418.2 178.4 418.2 180.5C418.2 182 417.7 183.8 416.7 185.9C416 187.4 415.6 188.5 415.6 189.3C415.6 190 416 190.4 416.8 190.4H421.5C421.9 190.4 422.3 190.6 422.5 191.1C422.7 191.6 422.9 192.2 422.9 193C422.9 194.4 422.6 195.7 421.9 197C421.2 198.2 420.3 198.9 419.3 198.9C416.2 198.9 414.1 199 412.9 199.2C411.7 199.4 410.9 199.9 410.3 200.7C409.8 201.5 409.2 203 408.6 205.2C408.2 206.8 408 208 408 208.9C408 211 408.6 212.6 409.9 213.8C411.1 215 412.8 215.6 414.9 215.6C416.7 215.6 418.3 215.2 419.7 214.4C421.2 213.6 422.3 212.5 423.2 211L423.3 210.9C423.8 209.5 424.3 208.1 425 206.7C427.2 202 430.2 198.1 434 195.1C437.8 192 442 190.5 446.6 190.5C450.6 190.5 453.8 191.8 456.2 194.3C458.6 196.8 459.8 200.8 459.8 206.2C459.8 209.4 459.3 212.5 458.4 215.6H459C461.8 215.6 464.2 214.1 466.3 211.1L466.7 210.6C467.5 209.4 469.1 207.2 471.2 203.9C473.4 200.5 475.3 197.8 476.9 195.7C478.4 193.6 480.1 191.9 481.9 190.5C483.7 189.1 485.5 188.4 487.4 188.4C490.1 188.4 492.1 189 493.6 190.3C495.1 191.6 495.8 193 495.7 194.6C495.7 195.2 495.4 195.7 494.9 196.1C494.4 196.5 493.6 197 492.7 197.6C491.5 198.2 490.7 198.8 490.1 199.3C489.5 199.8 489.2 200.5 489.2 201.4C489.2 201.9 489.8 203.5 491.1 206C493.2 210.1 494.6 213.4 495.2 216C496.5 215.9 497.6 215.5 498.6 214.7C499.6 213.9 500.6 212.7 501.6 211.2C502 210.7 502.4 210.4 503.1 210.4C504 209.6 504.7 210 505.4 210.7ZM330.8 208C330.8 206.5 330.4 205.3 329.5 204.5C328.7 203.7 327.5 203.2 326 203.2C323.8 203.2 321.9 204.1 320.5 205.8C319 207.6 318.3 209.5 318.3 211.6C318.3 213.1 318.7 214.3 319.5 215.2C320.3 216.1 321.4 216.5 322.8 216.5C324.3 216.5 325.7 216.1 326.9 215.2C328.1 214.3 329.1 213.2 329.7 211.9C330.5 210.6 330.8 209.3 330.8 208ZM378.5 208C378.5 206.6 378.1 205.5 377.3 204.5C376.5 203.6 375.2 203.1 373.5 203.1C371.4 203.1 369.6 204 368.2 205.7C366.8 207.5 366.1 209.4 366.1 211.5C366.1 213 366.5 214.1 367.2 215C368 215.9 369.2 216.4 370.8 216.4C372.3 216.4 373.6 216 374.8 215.1C376 214.2 376.9 213.1 377.6 211.8C378.1 210.6 378.5 209.3 378.5 208ZM448.7 208C448.7 206.6 448.3 205.5 447.5 204.5C446.7 203.6 445.4 203.1 443.7 203.1C441.6 203.1 439.8 204 438.4 205.7C437 207.5 436.3 209.4 436.3 211.5C436.3 213 436.7 214.1 437.4 215C438.2 215.9 439.4 216.4 441 216.4C442.5 216.4 443.8 216 445 215.1C446.2 214.2 447.1 213.1 447.8 211.8C448.3 210.6 448.7 209.3 448.7 208ZM481.9 209.9C481.9 207.8 481.2 205.5 479.9 203C479.7 202.4 479.3 202.1 478.9 202.1C478.5 202.1 478.1 202.4 477.7 203C475.6 206 473.2 209.3 470.5 212.7C470.5 213.8 471 214.7 471.9 215.4C472.8 216.1 474.1 216.5 475.6 216.5C477.5 216.5 479.1 215.9 480.2 214.6C481.4 213.4 481.9 211.9 481.9 209.9ZM74.7 135.5C78.2 129 80 121.7 80 113.6C80 108.6 79 104 77.1 99.7C75.1 95.4 72.3 90.4 68.5 84.7C65.5 80 63.2 76.2 61.7 73.2C60.2 70.2 59.4 67.3 59.4 64.4C59.4 60.2 60.3 57.1 62.2 55C64.1 53 66.5 52 69.5 52C72.1 52 74 52.8 75.2 54.4C76.5 56 77.1 58 77.1 60.4C77.1 63.4 76.3 65.8 74.8 67.6C74 68.7 74 69.7 74.8 70.9C75.6 72 76.6 72.9 78.1 73.4C79.5 73.9 80.7 73.9 81.6 73.3C85.5 70.7 89 67.3 92 62.9C95 58.5 96.5 54.1 96.5 49.6C96.5 44.8 95.3 40.4 92.8 36.4C90.3 32.4 86.5 29.6 81.4 27.9C85.6 23.1 88.7 18.6 90.8 14.5C92.8 10.4 93.6 7.5 93.2 5.8C92.6 2 89.9 0 85.2 0C82.5 0 79.8 2.3 77.2 6.8C74.6 11.3 72.5 17.8 71 26.2H69.9C59.5 26.2 51.6 29.1 46.2 34.8C40.8 40.5 38.1 47.6 38.1 56C38.1 60.8 38.9 65.2 40.6 69.2C42.3 73.2 44.7 77.9 47.8 83.3C50.2 87.7 52 91 53.1 93.4C54.2 95.8 54.8 98.3 54.8 100.8C54.8 104.9 53.5 108.1 51 110.6C48.4 113.1 45.2 114.3 41.3 114.3C36.9 114.3 33.6 113 31.2 110.5C28.8 107.9 27.6 104.4 27.6 99.9C27.6 97.3 28 95.4 28.7 94C29.5 92.6 30.4 91.3 31.6 90.1C32.8 88.8 33.4 87.7 33.4 86.8C33.4 85.4 32.8 84.4 31.5 83.6C30.2 82.8 28.5 82.5 26.4 82.5C22.6 82.5 18.7 83.7 14.7 86C10.6 88.3 7.2 92.1 4.3 97.4C1.4 102.7 0 109.3 0 117.2C0 125.5 1.7 132.6 5.1 138.5C8.5 144.4 13.2 148.8 19.2 151.7C14.4 157 10.8 161.8 8.5 166.4C6.2 170.9 5.2 174.1 5.7 175.9C6.6 180 9.3 182 13.8 182C16.5 182 19.2 179.7 21.8 175C24.4 170.3 26.5 163.7 28 154.9C31.8 155.7 35.2 156 38.4 156C46.4 156 53.5 154.2 59.9 150.6C66.2 147 71.2 142 74.7 135.5ZM509.5 118.8C499.6 137.3 488.7 151.3 476.9 160.7C465.1 170.2 452.7 174.9 439.6 174.9C426.8 174.9 417.1 170.7 410.5 162.4C404.9 155.4 401.7 146.9 400.8 136.8C399.6 138.2 398.3 139.6 396.9 140.8C390.7 146.7 382.8 149.6 373 149.6H371.6C366.2 157.4 360 163.6 353 168.1C346 172.6 339 174.9 331.9 174.9C325.9 174.9 321 173.3 317.2 170.2C313.4 167 311.6 162.2 311.6 155.8C311.6 153.2 311.7 151.2 312.1 149.7V148.8C312.1 147.8 311.9 147 311.4 146.4C310.9 145.9 310.3 145.6 309.6 145.6C307.8 145.6 306.5 147 305.8 149.7L304.2 158C301.3 172 298.9 183 296.8 191C294.7 199 292 205.9 288.7 211.5C285.4 217.1 281.5 220 277 220C266.5 220 261.2 214.8 261.2 204.4C261.2 199.4 262.4 193.5 264.7 186.5C267 179.5 271 169 276.5 155.1L276.7 154.6C274.5 156.8 272.2 158.8 269.9 160.7C258.1 170.2 245.7 174.9 232.6 174.9C219.8 174.9 210.1 170.7 203.5 162.4C197.9 155.4 194.7 146.9 193.8 136.8C192.6 138.2 191.3 139.6 189.9 140.8C183.7 146.7 175.8 149.6 166 149.6H164.6C159.2 157.4 153 163.6 146 168.1C139 172.6 132 174.9 124.9 174.9C118.9 174.9 114 173.3 110.2 170.2C106.4 167 104.6 162.2 104.6 155.8C104.6 153.2 104.7 151.2 105.1 149.7V148.8C105.1 147.8 104.9 147 104.4 146.4C103.9 145.9 103.3 145.6 102.6 145.6C100.8 145.6 99.5 147 98.8 149.7L97.2 158C94.3 172 91.9 183 89.8 191C87.7 199 85 205.9 81.7 211.5C78.4 217.1 74.5 220 70 220C59.5 220 54.2 214.8 54.2 204.4C54.2 199.4 55.4 193.5 57.7 186.5C60 179.5 64 169 69.5 155.1L76 138.6L85.2 113.1L86.8 108.6C91.9 93.6 95.6 83.2 97.8 77.6C100.1 72 102.3 68 104.6 65.7C106.9 63.4 109.9 62.2 113.6 62.2C120.5 62.2 123.5 64.8 122.6 69.9C122.4 71 122.6 71.8 123.2 72.4C123.7 73 124.5 73.3 125.6 73.3C127.1 73.3 128.5 72.6 129.9 71.3C133.5 67.8 137.1 65.5 140.6 64.2C144.1 62.9 147.9 62.3 152 62.3C161 62.3 168.2 65.4 173.5 71.5C178.8 77.7 181.5 86 181.5 96.5C181.5 105.7 180.1 114.9 177.2 124.2C184.1 124.2 190.1 120.5 195.2 113.2C195.4 112.9 195.6 112.7 195.8 112.5C197 107.9 198.6 103.3 200.6 98.8C205.4 88.1 212.3 79.4 221.3 72.5C230.3 65.7 240.7 62.2 252.4 62.2C262.3 62.2 269.8 64.9 274.9 70.3C280 75.7 282.6 82.5 282.6 90.6C282.6 96.2 281.1 101.6 278 107.1C274.9 112.5 270.6 116.9 265.1 120.4C259.6 123.9 253.3 125.6 246.3 125.6C238.8 125.6 232.9 124.4 228.7 122C228.1 121.7 227.6 121.5 227.3 121.5C226.5 121.5 225.9 121.8 225.5 122.3C225 122.8 224.8 123.6 224.8 124.7C224.8 128.5 227 131.4 231.5 133.5C235.9 135.6 241.5 136.7 248.3 136.7C256.4 136.7 264.5 134.7 272.6 130.6C280.7 126.5 287.2 120.8 292 113.2L293.6 108.7C298.7 93.7 302.4 83.3 304.6 77.7C306.9 72.1 309.1 68.1 311.4 65.8C313.7 63.5 316.7 62.3 320.4 62.3C327.3 62.3 330.3 64.9 329.4 70C329.2 71.1 329.4 71.9 330 72.5C330.5 73.1 331.3 73.4 332.4 73.4C333.9 73.4 335.3 72.7 336.7 71.4C340.3 67.9 343.9 65.6 347.4 64.3C350.9 63 354.7 62.4 358.8 62.4C367.8 62.4 375 65.5 380.3 71.6C385.6 77.8 388.3 86.1 388.3 96.6C388.3 105.8 386.9 115 384 124.3C390.9 124.3 396.9 120.6 402 113.3C402.2 113 402.4 112.8 402.6 112.6C403.8 108 405.4 103.4 407.4 98.9C412.2 88.2 419.1 79.5 428.1 72.6C437.1 65.8 447.5 62.3 459.2 62.3C469.1 62.3 476.6 65 481.7 70.4C486.8 75.8 489.4 82.6 489.4 90.7C489.4 96.3 487.9 101.7 484.8 107.2C481.7 112.6 477.4 117 471.9 120.5C466.4 124 460.1 125.7 453.1 125.7C445.6 125.7 439.7 124.5 435.5 122.1C434.9 121.8 434.4 121.6 434.1 121.6C433.3 121.6 432.7 121.9 432.3 122.4C431.8 122.9 431.6 123.7 431.6 124.8C431.6 128.6 433.8 131.5 438.3 133.6C442.7 135.7 448.3 136.8 455.1 136.8C463.2 136.8 471.3 134.8 479.4 130.7C487.5 126.6 494 120.9 498.8 113.3C499.7 111.9 500.9 111.3 502.4 111.3C504.5 111.3 506.3 112.2 507.9 114C510.1 115.7 510.4 117.3 509.5 118.8ZM437.1 99.4C437.1 102.1 438 104.3 439.8 106.1C441.6 107.8 444.2 108.7 447.7 108.7C451.8 108.7 455.1 107.4 457.7 104.8C460.3 102.2 461.6 99.3 461.6 96.1C461.6 93.4 460.7 91.2 458.9 89.4C457.1 87.7 454.5 86.8 451.2 86.8C447 86.8 443.6 88.1 440.9 90.6C438.5 93.2 437.1 96.1 437.1 99.4ZM230.2 99.4C230.2 102.1 231.1 104.3 232.9 106.1C234.7 107.8 237.3 108.7 240.8 108.7C244.9 108.7 248.2 107.4 250.8 104.8C253.4 102.2 254.7 99.3 254.7 96.1C254.7 93.4 253.8 91.2 252 89.4C250.2 87.7 247.6 86.8 244.3 86.8C240.1 86.8 236.7 88.1 234 90.6C231.5 93.2 230.2 96.1 230.2 99.4ZM148.6 107.1C148.6 103.6 147.6 100.8 145.6 98.5C143.6 96.2 140.5 95.1 136.2 95.1C130.9 95.1 126.5 97.3 123 101.6C119.5 106 117.7 110.8 117.7 116C117.7 119.6 118.6 122.5 120.5 124.8C122.4 127.1 125.3 128.2 129.4 128.2C133 128.2 136.3 127.1 139.2 124.9C142.1 122.7 144.4 120 146.1 116.7C147.7 113.5 148.6 110.2 148.6 107.1ZM355.5 107.1C355.5 103.6 354.5 100.8 352.5 98.5C350.5 96.2 347.4 95.1 343.1 95.1C337.8 95.1 333.4 97.3 329.9 101.6C326.4 106 324.6 110.8 324.6 116C324.6 119.6 325.5 122.5 327.4 124.8C329.3 127.1 332.2 128.2 336.3 128.2C339.9 128.2 343.2 127.1 346.1 124.9C349 122.7 351.3 120 353 116.7C354.7 113.5 355.5 110.2 355.5 107.1Z" fill="white"/>
</g>
<defs>
<clipPath id="clip0_767_100">
<rect width="510" height="253.6" fill="white"/>
</clipPath>
</defs>
</svg>
